HIERARCHY
ROOT Hips
{
	OFFSET -3.958830 18.904000 13.208200
	CHANNELS 6 Xposition Yposition Zposition Zrotation Yrotation Xrotation 
	JOINT LHipJoint
	{
		OFFSET 0.000000 0.000000 0.000000
		CHANNELS 3 Zrotation Yrotation Xrotation
		JOINT LeftUpLeg
		{
			OFFSET 1.800000 -1.400000 0.085000
			CHANNELS 3 Zrotation Yrotation Xrotation
			JOINT LeftLeg
			{
				OFFSET 2.215000 -6.000000 0.000000
				CHANNELS 3 Zrotation Yrotation Xrotation
				JOINT LeftFoot
				{
					OFFSET 2.500000 -6.900000 0.000000
					CHANNELS 3 Zrotation Yrotation Xrotation
					JOINT LeftToeBase
					{
						OFFSET 0.200000 -0.500000 1.950000
						CHANNELS 3 Zrotation Yrotation Xrotation
						End Site
						{
							OFFSET 0.000000 0.000000 0.000000
						}
					}
				}
			}
		}
	}
	JOINT RHipJoint
	{
		OFFSET 0.000000 0.000000 0.000000
		CHANNELS 3 Zrotation Yrotation Xrotation
		JOINT RightUpLeg
		{
			OFFSET -1.800000 -1.400000 0.085000
			CHANNELS 3 Zrotation Yrotation Xrotation
			JOINT RightLeg
			{
				OFFSET -2.215000 -6.000000 0.000000
				CHANNELS 3 Zrotation Yrotation Xrotation
				JOINT RightFoot
				{
					OFFSET -2.500000 -6.900000 0.000000
					CHANNELS 3 Zrotation Yrotation Xrotation
					JOINT RightToeBase
					{
						OFFSET -0.200000 -0.500000 1.950000
						CHANNELS 3 Zrotation Yrotation Xrotation
						End Site
						{
							OFFSET 0.000000 0.000000 0.000000
						}
					}
				}
			}
		}
	}
	JOINT LowerBack
	{
		OFFSET 0.000000 0.000000 0.000000
		CHANNELS 3 Zrotation Yrotation Xrotation
		JOINT Spine
		{
			OFFSET -0.087000 1.940000 -0.288900
			CHANNELS 3 Zrotation Yrotation Xrotation
			JOINT Spine1
			{
				OFFSET 0.000000 1.950000 0.060000
				CHANNELS 3 Zrotation Yrotation Xrotation
				JOINT Neck
				{
					OFFSET 0.000000 0.000000 0.000000
					CHANNELS 3 Zrotation Yrotation Xrotation
					JOINT Neck1
					{
						OFFSET 0.000000 1.600000 0.340000
						CHANNELS 3 Zrotation Yrotation Xrotation
						JOINT Head
						{
							OFFSET 0.000000 1.667000 -0.240000
							CHANNELS 3 Zrotation Yrotation Xrotation
							End Site
							{
								OFFSET 0.000000 0.000000 0.000000
							}
						}
					}
				}
				JOINT LeftShoulder
				{
					OFFSET 0.000000 0.000000 0.000000
					CHANNELS 3 Zrotation Yrotation Xrotation
					JOINT LeftArm
					{
						OFFSET 2.700000 1.550000 -0.730000
						CHANNELS 3 Zrotation Yrotation Xrotation
						JOINT LeftForeArm
						{
							OFFSET 5.450000 0.000000 0.000000
							CHANNELS 3 Zrotation Yrotation Xrotation
							JOINT LeftHand
							{
								OFFSET 3.450000 0.000000 0.000000
								CHANNELS 3 Zrotation Yrotation Xrotation
								JOINT LeftHandIndex1
								{
									OFFSET 0.750000 0.000000 0.000000
									CHANNELS 3 Zrotation Yrotation Xrotation
									End Site
									{
										OFFSET 0.000000 0.000000 0.000000
									}
								}
							}
						}
					}
				}
				JOINT RightShoulder
				{
					OFFSET 0.000000 0.000000 0.000000
					CHANNELS 3 Zrotation Yrotation Xrotation
					JOINT RightArm
					{
						OFFSET -2.700000 1.550000 -0.730000
						CHANNELS 3 Zrotation Yrotation Xrotation
						JOINT RightForeArm
						{
							OFFSET -5.450000 0.000000 0.000000
							CHANNELS 3 Zrotation Yrotation Xrotation
							JOINT RightHand
							{
								OFFSET -3.450000 0.000000 0.000000
								CHANNELS 3 Zrotation Yrotation Xrotation
								JOINT RightHandIndex1
								{
									OFFSET -0.750000 0.000000 0.000000
									CHANNELS 3 Zrotation Yrotation Xrotation
									End Site
									{
										OFFSET 0.000000 0.000000 0.000000
									}
								}
							}
						}
					}
				}
			}
		}
	}
}
MOTION
Frames: 13
Frame Time: 0.016667
-1.015400 16.375620 -2.984290 -4.004416 6.819876 -7.137093 -15.324063 13.039543 3.841908 14.289176 -4.012964 -28.172135 -4.493805 13.569538 47.696259 0.566704 9.197833 1.182391 0.359510 0.360300 0.205180 18.101735 -11.399177 1.586840 -19.126857 0.662673 -19.713789 -2.441150 -6.691622 38.664183 -0.332903 -5.686031 2.215143 0.329450 0.084060 0.066930 -3.238655 -1.287105 -7.549170 3.728387 2.232451 17.457922 1.116716 3.341129 9.126998 0.850174 -0.395385 -4.571822 -2.941387 -1.097788 36.632048 0.091610 -1.226600 -8.097750 -21.676583 3.505992 -0.517857 -42.366746 -13.254506 3.915263 164.268419 -70.833542 -162.521677 -3.625995 3.616971 0.057170 0.098250 -0.023880 0.111010 20.102321 -1.040743 1.583770 41.877937 7.691474 -3.834822 -152.881255 61.645792 -147.659668 2.074844 -2.150948 -0.048260 0.157870 -0.085560 -0.057440 
-1.042730 16.307530 -2.981980 -3.884496 6.774423 -6.936338 -15.358080 12.914934 3.992735 15.073624 -4.079725 -29.204183 -5.117215 14.478799 49.063570 0.673627 9.593448 1.053210 0.339120 0.331990 0.192530 18.095518 -11.301336 1.566876 -20.099669 0.639027 -20.060051 -2.096836 -6.934067 38.700491 -0.328488 -5.717437 2.199520 0.300230 0.075070 0.061790 -3.176485 -1.307721 -7.659687 3.220904 2.408464 17.639382 1.369616 3.466630 8.843177 0.795367 -0.399796 -4.960516 -3.013343 -1.082999 37.091636 0.461430 -1.459060 -7.514670 -21.299763 3.073721 -0.166772 -42.268822 -11.230968 1.874321 176.108776 -73.900612 -178.980546 -3.557595 3.588080 0.064070 0.083720 -0.020890 0.105760 19.869640 -0.422080 1.960805 41.714790 6.625654 -5.101714 -157.092309 65.487870 -156.172520 2.062869 -2.156954 -0.043580 0.143990 -0.082410 -0.054820 
-1.083050 16.191740 -2.975420 -3.551656 6.539990 -6.621066 -15.400879 12.679780 4.266087 16.514641 -4.192116 -30.749404 -6.465821 16.233586 51.341267 0.868809 10.302858 0.829561 0.309400 0.288290 0.182100 18.098735 -11.145665 1.537006 -21.930759 0.514499 -20.460554 -1.433792 -7.413678 38.639644 -0.331811 -5.767550 2.173179 0.249830 0.051600 0.049950 -3.111277 -1.301427 -7.876211 2.692072 2.706153 18.249362 1.272789 3.764233 7.690401 0.702521 -0.548468 -5.300644 -3.486380 -1.302442 37.960667 1.054730 -2.050270 -6.961190 -21.201807 2.807349 -0.051136 -41.388815 -7.564467 -1.740616 -150.603471 -76.859054 139.857825 -3.458341 3.257581 0.089810 0.048470 -0.003520 0.095080 19.931545 0.096945 2.453480 42.076241 3.098788 -8.970703 -179.889387 72.457466 171.207493 1.957995 -1.978331 -0.036420 0.130240 -0.079660 -0.053360 
-1.119190 16.065660 -2.967420 -3.197769 6.553966 -6.320719 -15.447664 12.352456 4.569204 18.056310 -4.380126 -32.442415 -8.106006 18.332487 53.839817 1.098951 11.100771 0.587905 0.272690 0.230680 0.179020 18.117082 -10.914408 1.585845 -24.342930 0.479738 -21.252304 0.015074 -8.568758 39.854141 -0.385848 -6.088899 2.046599 0.185900 0.014790 0.035100 -3.064082 -1.249359 -8.175216 2.189175 2.972431 19.281173 0.711083 4.025446 5.927739 0.953129 -0.364459 -5.851847 -3.391148 -1.553582 39.497989 1.732390 -2.403290 -6.040600 -20.768134 2.731831 0.348960 -39.709677 -3.240264 -3.028321 -106.660489 -76.061626 85.127208 -3.858453 2.449045 0.129990 0.004040 0.022480 0.076630 19.084288 0.266039 2.442744 42.201344 -1.353925 -13.965746 118.176449 74.637098 93.071220 2.614894 0.620644 -0.031260 0.109230 -0.077090 -0.061000 
-1.159420 15.958750 -2.952910 -3.288529 7.230120 -6.313766 -15.467367 12.045106 4.767001 19.606047 -4.505986 -33.786179 -8.614104 19.715772 56.244480 1.281797 11.687695 0.412596 0.248490 0.185470 0.183830 18.154411 -10.652643 1.772442 -26.701054 0.550922 -22.073170 2.717905 -10.673863 42.216832 -0.512999 -6.732453 1.811697 0.126330 -0.031890 0.024490 -3.089308 -1.173831 -8.492820 2.465757 3.074605 20.266039 -0.189066 4.268527 5.274757 1.213223 0.203872 -7.256248 -2.698894 -2.323065 41.603849 2.648800 -3.135080 -5.071820 -21.024413 1.565364 0.963861 -37.838971 0.141749 -4.106963 -76.248550 -71.717896 52.284879 -3.683279 3.467286 0.177110 -0.047720 0.059350 0.062050 18.784061 0.866977 4.412561 41.894530 -4.298123 -8.182636 71.279681 75.944474 43.645507 2.839925 -1.372316 -0.019460 0.083650 -0.082380 -0.068360 
-1.209700 15.871890 -2.944290 -3.466044 7.908991 -6.571485 -15.506440 11.784621 4.947067 21.275194 -4.502854 -35.057016 -8.771379 20.968227 58.628441 1.442916 12.223652 0.252632 0.237550 0.163700 0.189470 18.176002 -10.318077 1.999467 -28.902668 0.675885 -22.545671 5.957307 -13.111869 44.316013 -0.666426 -7.443051 1.563142 0.088020 -0.075310 0.011940 -3.060901 -1.277177 -8.824924 2.677000 3.084539 21.668112 -0.447281 4.450322 3.672359 1.256988 0.095104 -7.863043 -3.451262 -2.382336 44.501347 3.120330 -3.815550 -4.154060 -21.373453 0.409994 1.134960 -36.082188 2.830685 -6.526742 -58.710156 -61.851076 32.872294 -3.485268 3.564327 0.210260 -0.092780 0.090860 0.051330 19.048506 2.260955 5.087805 40.923443 -7.845400 -11.290032 56.601756 65.121777 28.229018 2.459705 -1.818412 -0.005530 0.065330 -0.089540 -0.071460 
-1.264830 15.792960 -2.933400 -3.536198 9.039825 -6.797626 -15.545566 11.536104 5.110357 22.868813 -4.448490 -36.193958 -9.192182 22.158485 60.297936 1.573159 12.661790 0.129838 0.224840 0.145400 0.182710 18.200933 -9.962276 2.232549 -30.967725 0.793462 -22.870648 9.082143 -15.684568 46.439872 -0.840212 -8.206800 1.312780 0.061150 -0.094160 0.002250 -3.035633 -1.441748 -9.118556 2.693233 2.769860 22.959769 -0.846280 4.244358 2.371601 1.263351 -0.165197 -8.400023 -4.385500 -1.954490 46.678165 3.578590 -4.224330 -3.199260 -22.167611 -0.854321 1.363412 -33.875570 5.197729 -7.668932 -49.782307 -52.892361 22.483738 -3.424756 3.489620 0.225510 -0.117620 0.104560 0.046440 19.862235 3.684187 5.692483 39.541596 -10.183809 -12.077100 53.085819 56.887624 21.986006 2.426325 -1.798936 0.002780 0.055290 -0.089960 -0.068690 
-1.327700 15.722340 -2.915940 -3.556489 10.077554 -7.168130 -15.586070 11.314160 5.254115 24.419737 -4.209163 -37.200664 -9.412776 23.320210 61.954082 1.686722 13.088667 0.015155 0.215840 0.130820 0.177370 18.224736 -9.645174 2.411279 -32.665715 0.920399 -22.974349 11.554560 -17.981044 48.388899 -1.005757 -8.890460 1.099854 0.046000 -0.100000 -0.002070 -3.001614 -1.596659 -9.338820 2.525610 2.456727 23.848703 -1.035297 3.958734 1.840127 1.226989 -0.451343 -8.822597 -5.280715 -1.455939 48.240698 3.590950 -4.407500 -2.330620 -22.537641 -1.738629 1.639352 -32.065499 6.931873 -7.991568 -45.706872 -46.609554 17.394447 -3.403082 3.438332 0.231010 -0.126160 0.107070 0.043590 20.352385 4.707399 6.100069 38.256705 -11.411992 -12.060574 54.228679 52.670888 20.321157 2.433359 -1.785260 0.005440 0.049930 -0.087360 -0.067450 
-1.372270 15.665310 -2.884430 -3.618159 10.915973 -7.678534 -15.595577 11.165982 5.299624 25.346047 -3.987503 -37.588365 -9.027419 23.918449 63.470155 1.765893 13.373463 -0.057561 0.207800 0.119480 0.170640 18.251385 -9.499962 2.523077 -33.820974 0.971688 -22.696986 13.130105 -19.613821 49.730558 -1.126618 -9.363284 0.956478 0.037030 -0.098250 -0.004620 -3.018752 -1.568342 -9.454279 2.604875 2.432903 24.196082 -1.274248 3.977024 1.822812 1.266742 -0.182229 -9.104618 -4.940954 -1.670304 49.741791 3.831690 -4.848710 -1.432520 -22.479797 -2.227272 1.880640 -30.782740 8.111132 -8.031134 -44.996304 -43.187582 15.497450 -3.393967 3.419992 0.229820 -0.127770 0.105430 0.042850 20.236186 5.007179 6.241533 37.271107 -12.045114 -11.688206 56.726787 47.991337 18.914955 2.447888 -1.780390 0.006430 0.047400 -0.084520 -0.064050 
-1.412850 15.622910 -2.862170 -3.677228 11.832918 -8.250258 -15.607893 11.092769 5.315190 26.015849 -3.743379 -37.713012 -8.587558 24.184072 64.437814 1.800332 13.526467 -0.100718 0.206120 0.116610 0.165600 18.258847 -9.447115 2.552442 -34.261511 1.033771 -22.292055 13.746340 -20.523057 50.805967 -1.206057 -9.647086 0.873105 0.036210 -0.095300 -0.008650 -3.008636 -1.526749 -9.491942 2.461634 2.639658 24.299716 -1.122172 4.172336 2.308835 1.251889 0.238109 -9.330479 -4.256373 -2.029848 51.273911 4.387310 -5.323620 -0.847670 -21.709830 -2.323548 2.050570 -30.271238 8.453810 -7.915894 -47.081374 -41.923400 15.705749 -3.391307 3.418769 0.234560 -0.130640 0.105330 0.043380 19.539432 4.869593 6.285675 36.653800 -12.361304 -11.406924 59.610045 45.667579 18.771676 2.455963 -1.785616 0.003800 0.051200 -0.081520 -0.062460 
-1.454930 15.597280 -2.838090 -3.836220 12.541483 -8.829646 -15.615769 11.075203 5.293954 26.540749 -3.475496 -37.474601 -7.994928 24.186132 65.127905 1.820131 13.585647 -0.121684 0.205830 0.118340 0.165060 18.253615 -9.488057 2.524553 -34.011051 1.099400 -21.820718 13.724427 -20.779703 51.458022 -1.244148 -9.754301 0.842155 0.033780 -0.098260 -0.011250 -2.991475 -1.413264 -9.470626 2.201670 3.093373 24.077077 -0.765933 4.570693 3.022192 1.252954 1.102890 -9.694121 -2.582066 -2.892330 52.965995 5.099170 -5.813190 -0.200200 -20.388125 -2.570715 2.340004 -29.873034 8.391185 -7.692653 -50.683760 -41.330561 16.818296 -3.388083 3.429178 0.237820 -0.135310 0.111470 0.042450 18.285941 4.626070 6.391012 36.554189 -12.617298 -11.198049 62.619495 43.247053 18.480365 2.467642 -1.792281 0.006820 0.050170 -0.082860 -0.060240 
-1.489240 15.584500 -2.817100 -3.959242 13.191278 -9.459996 -15.620559 11.128623 5.238785 26.744462 -3.323616 -37.126658 -7.133186 23.779899 65.588716 1.808106 13.548410 -0.118190 0.207340 0.117730 0.166810 18.239347 -9.556499 2.478903 -33.525887 1.154597 -21.364434 13.331893 -20.761157 52.083487 -1.263615 -9.810309 0.824391 0.033660 -0.100560 -0.010530 -2.970436 -1.370719 -9.420376 1.979507 3.313219 23.876697 -0.393970 4.730775 3.648551 1.248129 1.604262 -9.919016 -1.648142 -3.558335 54.456738 5.295520 -6.301990 0.464530 -19.474877 -2.761674 2.534893 -29.469677 8.247492 -7.467492 -53.378210 -40.115053 17.198499 -3.388359 3.438240 0.236660 -0.136290 0.112240 0.040840 17.457754 4.538583 6.388885 35.908918 -12.437659 -10.811227 64.782421 40.607096 17.708445 2.475031 -1.804184 0.009610 0.046260 -0.082860 -0.059360 
-1.518030 15.580770 -2.788460 -3.980173 13.750252 -10.114543 -15.631034 11.234381 5.177516 26.734834 -3.201573 -36.680238 -6.305902 23.286361 65.883931 1.795939 13.470789 -0.101437 0.209320 0.121210 0.162490 18.208625 -9.664177 2.385640 -32.856272 1.199128 -20.592578 12.540212 -20.389999 52.520269 -1.262884 -9.778210 0.836847 0.033400 -0.101200 -0.015580 -2.921222 -1.371068 -9.337080 1.568467 3.601868 23.504817 0.289396 4.912448 4.310117 1.155244 1.854028 -10.198619 -1.233002 -3.934313 56.154858 5.776450 -6.870730 1.179720 -18.284395 -2.749158 2.762238 -29.704355 8.216298 -7.394328 -55.993865 -38.907652 17.462082 -3.379049 3.446069 0.235750 -0.141860 0.113670 0.044050 16.556061 4.478491 6.431814 35.054689 -12.441965 -10.451748 66.900323 37.902761 16.776643 2.482283 -1.815886 0.013040 0.046230 -0.085440 -0.053660 
